<svg id="Facebook_icon" data-name="Facebook icon" xmlns="http://www.w3.org/2000/svg" width="55" height="55" viewBox="0 0 55 55">
  <path id="Shape" d="M27.509,55A27.506,27.506,0,0,1,16.8,2.161,27.507,27.507,0,0,1,38.208,52.839,27.3,27.3,0,0,1,27.509,55ZM17.061,23.6,16.9,31.039l6.362.036.215,15.394h7.259l.179-15.431H36.9l1.039-7.294-7.06-.143.036-5.717c0-.1.035-2.366,3.047-2.4.909-.011,1.717-.016,2.4-.016,1.165,0,1.573.016,1.577.016l.18-6.809c-.264,0-.747-.017-1.306-.032-1.351-.035-3.2-.083-4.228-.083-.215,0-.385,0-.506.006a9.489,9.489,0,0,0-2.347.376,8.61,8.61,0,0,0-3.047,1.434,7.689,7.689,0,0,0-2.115,2.491,10.779,10.779,0,0,0-1.094,3.638c-.08.638-.127,1.2-.143,1.721V23.6Z" fill="#fff"/>
</svg>
