<svg id="Gihthub_icon" class="social-icon" data-name="Gihthub icon" xmlns="http://www.w3.org/2000/svg" width="58" height="56" viewBox="0 0 58 56">
  <path id="Path" class="iconn" d="M29,0a28.673,28.673,0,0,0-9.167,55.947c1.45.263,1.979-.624,1.979-1.381,0-.683-.027-2.947-.041-5.344C13.707,50.957,12,45.837,12,45.837c-1.32-3.315-3.22-4.2-3.22-4.2-2.636-1.78.2-1.745.2-1.745a6.08,6.08,0,0,1,4.445,2.958c2.588,4.387,6.79,3.119,8.439,2.383A6.115,6.115,0,0,1,23.708,41.4C17.27,40.675,10.5,38.212,10.5,27.211a11.053,11.053,0,0,1,2.982-7.7,10.244,10.244,0,0,1,.287-7.6s2.432-.771,7.976,2.944a27.722,27.722,0,0,1,14.518,0c5.533-3.718,7.969-2.944,7.969-2.944a10.2,10.2,0,0,1,.29,7.6,11.02,11.02,0,0,1,2.981,7.7c0,11.028-6.783,13.457-13.243,14.168,1.044.89,1.968,2.635,1.968,5.313,0,3.837-.039,6.932-.039,7.878,0,.764.527,1.658,2,1.377A28.676,28.676,0,0,0,29,0Z" fill="#fff"/>
</svg>
