<svg id="In_icon" data-name="In icon" xmlns="http://www.w3.org/2000/svg" width="56" height="56" viewBox="0 0 56 56">
  <path id="Shape" d="M27.991,56A27.992,27.992,0,0,1,8.2,8.2,28.007,28.007,0,1,1,27.991,56Zm5.323-28.01h.133A2.591,2.591,0,0,1,36.111,30a9.109,9.109,0,0,1,.274,2.628v9.36c0,.435.02.456.438.456H41.95c.547,0,.547,0,.547-.529l0-.9v-.133c-.016-3.435-.033-6.881-.05-10.312a12.667,12.667,0,0,0-.492-3.431A5.4,5.4,0,0,0,38.867,23.3a8.257,8.257,0,0,0-3.325-.7,8.965,8.965,0,0,0-2.131.264,6.315,6.315,0,0,0-3.832,2.682c0-.224,0-.454,0-.676,0-.451-.008-.916,0-1.367,0-.317-.1-.419-.419-.419H24.123c-.325,0-.419.09-.419.4.018,6.157.018,12.4,0,18.557,0,.3.1.4.419.4H29.4c.311,0,.4-.09.4-.4-.018-2.924-.018-5.889,0-8.813a21.192,21.192,0,0,1,.128-2.172,3.686,3.686,0,0,1,.895-2.135A3.166,3.166,0,0,1,33.314,27.99ZM14.335,23.08a.363.363,0,0,0-.279.089.431.431,0,0,0-.08.332V42.023a.423.423,0,0,0,.073.326.457.457,0,0,0,.347.093h5.236c.33,0,.42-.09.42-.419V23.5c0-.291-.051-.421-.352-.421l-.068,0H14.4Zm2.671-9.541a3.492,3.492,0,0,0-2.532,1.083A3.578,3.578,0,0,0,13.5,17.06a3.514,3.514,0,0,0,1.024,2.482,3.443,3.443,0,0,0,2.463,1.04h.034a3.521,3.521,0,1,0-.018-7.042Z" fill="#fff"/>
</svg>
